<?xml version="1.0" standalone="no"?>
<!DOCTYPE svg PUBLIC "-//W3C//DTD SVG 20010904//EN"
 "http://www.w3.org/TR/2001/REC-SVG-20010904/DTD/svg10.dtd">
<svg version="1.0" xmlns="http://www.w3.org/2000/svg"
 width="868.000000pt" height="868.000000pt" viewBox="0 0 868.000000 868.000000"
 preserveAspectRatio="xMidYMid meet">
<metadata>
Created by potrace 1.11, written by Peter Selinger 2001-2013
</metadata>
<g transform="translate(0.000000,868.000000) scale(0.100000,-0.100000)"
fill="#000000" stroke="none">
<path d="M3650 8654 c-6 -14 -10 -31 -10 -37 0 -7 -7 -23 -16 -35 -8 -12 -13
-22 -10 -22 4 0 -130 -400 -250 -745 -19 -55 -36 -107 -38 -115 -2 -8 -23 -69
-46 -135 -23 -66 -43 -124 -44 -130 -2 -5 -6 -17 -9 -25 -9 -24 -59 -174 -61
-185 -1 -5 -4 -14 -8 -20 -3 -5 -22 -59 -42 -120 -19 -60 -76 -229 -126 -375
-50 -146 -93 -269 -94 -275 -2 -5 -5 -17 -9 -25 -10 -27 -89 -265 -92 -275 -1
-5 -5 -18 -8 -27 -10 -26 -18 -52 -19 -58 0 -3 -4 -13 -10 -23 -5 -10 -11 -26
-13 -35 -7 -32 -224 -664 -229 -670 -3 -3 -6 -11 -6 -18 0 -7 -4 -23 -9 -36
-5 -13 -10 -27 -11 -33 -1 -5 -11 -31 -21 -57 -10 -27 -16 -48 -14 -48 3 0 -1
-13 -9 -29 -9 -16 -12 -31 -9 -35 4 -3 2 -6 -4 -6 -6 0 -14 -15 -18 -32 -10
-46 -7 -35 -73 -225 -33 -95 -58 -173 -55 -173 3 0 1 -6 -5 -12 -5 -7 -24 -56
-40 -108 -46 -141 -111 -333 -119 -350 -3 -8 -7 -18 -8 -22 -2 -5 -3 -9 -5
-10 -1 -2 -3 -10 -5 -18 -4 -17 -132 -396 -164 -485 -12 -33 -24 -67 -26 -76
-2 -9 -11 -39 -20 -65 -66 -191 -168 -491 -169 -499 -1 -5 -4 -14 -8 -20 -3
-5 -22 -59 -42 -120 -44 -134 -85 -255 -93 -275 -3 -8 -7 -20 -8 -26 -3 -10
-59 -179 -72 -214 -4 -8 -7 -19 -9 -25 -2 -5 -17 -50 -34 -100 -17 -49 -33
-94 -34 -100 -2 -5 -5 -17 -8 -25 -21 -57 -55 -160 -56 -170 0 -3 -6 -18 -12
-35 -11 -28 -268 -778 -274 -800 -2 -5 -6 -17 -9 -25 -18 -48 -50 -147 -50
-157 0 -7 -4 -13 -8 -13 -3 0 -9 -12 -12 -28 -2 -15 -37 -121 -77 -237 -40
-116 -73 -214 -75 -220 -1 -5 -5 -17 -8 -25 -9 -21 -67 -192 -72 -210 -2 -8
-15 -46 -29 -85 l-24 -70 576 -3 c317 -1 579 1 582 5 4 5 28 76 54 158 26 83
51 159 56 170 15 34 173 519 173 533 0 6 3 12 7 12 4 0 7 6 7 13 1 12 211 656
259 790 13 37 21 67 18 67 -4 0 -2 6 3 13 7 8 163 471 178 527 1 3 4 12 8 20
3 8 31 94 62 190 31 96 61 187 67 203 l10 27 1538 0 1538 0 28 -83 c16 -45 29
-84 29 -87 2 -12 27 -87 35 -105 5 -11 48 -135 95 -275 46 -140 115 -345 153
-455 80 -237 74 -218 77 -230 2 -5 6 -19 11 -30 4 -11 8 -22 9 -25 2 -9 26
-85 32 -100 19 -53 184 -538 187 -550 6 -23 86 -262 96 -285 5 -11 36 -103 70
-205 33 -102 65 -193 70 -202 6 -10 10 -24 10 -32 0 -8 5 -27 12 -41 l11 -25
600 0 c567 0 599 1 592 18 -3 9 -22 64 -41 122 -20 58 -38 112 -41 120 -10 25
-114 324 -116 335 -2 6 -12 35 -22 65 -11 30 -20 57 -20 60 -1 3 -4 12 -8 20
-3 8 -15 44 -27 80 -12 36 -25 74 -30 85 -4 11 -20 56 -34 100 -14 44 -50 152
-81 240 -30 88 -56 162 -56 165 -1 3 -3 10 -5 15 -16 46 -135 392 -137 400 -2
6 -16 48 -32 95 -16 47 -30 87 -30 90 -1 3 -5 12 -8 20 -6 15 -93 271 -168
495 -22 66 -43 127 -46 135 -3 8 -7 20 -9 25 -1 6 -50 150 -109 320 -59 171
-109 319 -112 330 -5 21 -20 59 -34 87 -5 10 -9 24 -9 32 0 8 -5 27 -12 43 -6
15 -12 30 -12 33 -1 3 -4 10 -8 16 -4 6 -9 21 -11 35 -3 13 -11 40 -19 59 -8
19 -15 37 -15 40 0 8 -25 84 -32 95 -3 6 -6 15 -7 20 -1 6 -32 98 -68 205 -37
107 -85 249 -107 315 -22 66 -43 127 -46 135 -4 8 -7 18 -7 22 -1 3 -4 10 -8
14 -5 4 -8 16 -8 26 0 10 -4 26 -10 36 -5 9 -23 60 -40 112 -17 52 -35 104
-40 115 -18 43 -38 115 -32 115 4 0 3 4 -3 8 -5 4 -30 68 -54 142 -25 74 -48
140 -51 145 -4 6 -12 28 -18 50 -5 22 -42 131 -80 243 -39 111 -71 204 -71
205 0 1 -2 9 -5 17 -13 34 -88 256 -92 270 -2 8 -24 74 -50 145 -25 72 -47
135 -48 140 -2 6 -6 17 -9 25 -3 8 -26 76 -51 150 -47 142 -164 484 -173 510
-10 27 -204 595 -207 605 -2 6 -6 17 -9 25 -3 8 -17 51 -32 95 -14 44 -29 87
-32 95 -3 8 -7 21 -9 28 -1 8 -6 21 -10 30 -4 9 -8 20 -9 25 -2 4 -3 8 -5 10
-1 1 -3 9 -5 17 -2 8 -42 128 -90 265 -48 138 -88 255 -89 260 -2 6 -6 17 -9
25 -3 8 -16 47 -28 85 -12 39 -25 74 -30 79 -5 6 -9 18 -9 28 0 9 -5 29 -12
43 l-11 25 -674 0 -673 0 -10 -26z m676 -1006 c2 -13 28 -117 59 -233 30 -115
57 -217 59 -225 2 -8 21 -77 41 -154 20 -76 38 -145 41 -155 5 -21 106 -364
138 -471 15 -47 72 -218 127 -380 55 -162 101 -299 103 -305 2 -5 6 -17 9 -25
3 -8 8 -24 11 -35 2 -11 30 -92 61 -180 31 -88 58 -167 60 -175 2 -8 29 -89
61 -180 31 -91 57 -171 57 -177 0 -7 4 -13 9 -13 4 0 8 -8 8 -17 0 -10 14 -56
31 -103 17 -47 40 -114 51 -150 11 -36 24 -74 29 -85 5 -11 24 -67 43 -125 19
-58 91 -271 160 -474 69 -203 126 -372 126 -375 0 -3 -586 -6 -1302 -6 -972 1
-1302 4 -1301 12 2 7 23 72 48 145 26 73 48 140 50 148 4 17 183 547 192 570
4 8 7 17 8 20 0 3 12 37 25 75 13 39 25 72 25 75 2 11 37 116 45 135 7 16 51
147 55 165 1 3 5 14 9 25 20 52 27 72 31 90 2 11 22 71 44 133 22 61 38 112
34 112 -3 0 -1 6 4 13 10 11 102 280 104 302 1 6 5 18 11 28 5 10 11 26 13 35
2 9 18 55 34 102 17 47 32 87 32 90 4 13 46 141 57 170 8 21 8 22 17 55 4 17
12 36 18 43 5 6 7 12 3 12 -3 0 0 16 8 35 9 20 15 38 15 40 0 7 51 176 58 195
3 8 7 20 8 25 2 6 13 44 26 85 12 41 24 81 25 88 1 7 9 36 18 65 17 57 49 168
52 180 1 4 2 9 3 12 0 3 1 7 2 10 0 2 5 19 10 37 18 56 173 646 184 698 8 39
11 45 20 52 13 10 27 -5 31 -34z"/>
</g>
</svg>
